<?xml version="1.0" standalone="no"?>
<!DOCTYPE svg PUBLIC "-//W3C//DTD SVG 20010904//EN"
 "http://www.w3.org/TR/2001/REC-SVG-20010904/DTD/svg10.dtd">
<svg version="1.0" xmlns="http://www.w3.org/2000/svg"
 width="460.000000pt" height="460.000000pt" viewBox="0 0 460.000000 460.000000"
 preserveAspectRatio="xMidYMid meet">
<metadata>
Created by potrace 1.14, written by Peter Selinger 2001-2017
</metadata>
<g transform="translate(0.000000,460.000000) scale(0.100000,-0.100000)"
fill="#000000" stroke="none">
<path d="M2106 4528 c-338 -329 -348 -792 -24 -1134 l68 -71 -1 -664 0 -664
-29 83 c-55 158 -158 343 -256 459 -42 49 -44 54 -49 130 -7 122 -22 184 -66
281 -116 257 -377 414 -678 409 l-86 -2 1 -115 c1 -88 6 -132 24 -190 87 -292
340 -489 650 -506 52 -3 101 -7 107 -9 19 -6 126 -155 176 -243 75 -135 142
-314 167 -450 5 -31 12 -66 14 -77 18 -99 32 -384 19 -387 -4 0 -19 -2 -33 -3
-209 -19 -391 -82 -554 -190 -122 -81 -261 -242 -327 -378 l-23 -48 -66 7
c-98 11 -139 11 -209 1 -347 -46 -622 -337 -648 -683 l-6 -84 2043 0 2043 0
-6 89 c-12 168 -94 346 -217 469 -239 239 -582 289 -892 131 -22 -11 -41 -19
-42 -17 -1 2 -14 36 -29 77 -83 230 -280 434 -512 530 -77 32 -190 65 -262 76
-21 3 -49 7 -61 10 -13 2 -45 5 -73 6 l-49 3 5 135 c4 118 11 186 31 316 15
95 100 364 130 413 8 12 12 22 9 22 -19 0 155 293 237 398 l33 43 115 4 c108
4 151 9 192 21 10 3 30 7 44 10 88 16 247 96 351 176 55 42 173 167 173 183 0
2 13 23 29 47 61 91 110 227 131 362 13 85 17 272 6 283 -8 8 -178 8 -252 0
-144 -16 -330 -87 -447 -171 -191 -136 -345 -386 -372 -604 -4 -26 -8 -58 -11
-72 -2 -14 -4 -62 -5 -107 0 -59 -5 -85 -15 -94 -8 -7 -40 -47 -70 -90 -123
-175 -213 -351 -280 -549 l-32 -95 0 660 1 661 64 67 c149 157 232 343 235
529 4 194 -43 339 -161 498 -44 59 -137 155 -168 173 -7 5 -41 -21 -87 -65z"/>
</g>
</svg>
